<svg xmlns="http://www.w3.org/2000/svg" width="49.475" height="49.475" viewBox="0 0 49.475 49.475">
  <path id="Icon_awesome-linkedin" data-name="Icon awesome-linkedin" d="M45.941,2.25H3.523A3.549,3.549,0,0,0,0,5.817V48.158a3.549,3.549,0,0,0,3.523,3.567H45.941a3.559,3.559,0,0,0,3.534-3.567V5.817A3.559,3.559,0,0,0,45.941,2.25ZM14.953,44.657H7.62V21.046h7.344V44.657ZM11.286,17.821a4.252,4.252,0,1,1,4.252-4.252,4.254,4.254,0,0,1-4.252,4.252ZM42.44,44.657H35.107V33.172c0-2.739-.055-6.262-3.81-6.262-3.821,0-4.406,2.982-4.406,6.063V44.657H19.558V21.046h7.035v3.225h.1a7.724,7.724,0,0,1,6.946-3.81c7.421,0,8.8,4.892,8.8,11.253Z" transform="translate(0 -2.25)" fill="#797979"/>
</svg>
