<svg xmlns="http://www.w3.org/2000/svg" viewBox="0 0 213.37 29.61"><defs><style>.cls-1{fill:#434343;}</style></defs><g id="Layer_2" data-name="Layer 2"><g id="Layer_1-2" data-name="Layer 1"><path class="cls-1" d="M6.17,3.81,12.66,23l6.5-19.34c.34-1,.59-1.72.76-2.12A2.89,2.89,0,0,1,20.76.48,2.46,2.46,0,0,1,22.36,0a2.64,2.64,0,0,1,1.38.37,2.79,2.79,0,0,1,1,1A2.42,2.42,0,0,1,25.1,2.6a4.09,4.09,0,0,1-.12.93c-.08.33-.18.65-.29,1s-.24.65-.35,1L17.4,24.2c-.25.72-.49,1.4-.74,2a8.71,8.71,0,0,1-.86,1.7,3.76,3.76,0,0,1-1.3,1.2,3.92,3.92,0,0,1-2,.47,3.92,3.92,0,0,1-2-.46,3.81,3.81,0,0,1-1.31-1.21,9.12,9.12,0,0,1-.87-1.71c-.25-.64-.5-1.31-.74-2L.8,5.64C.68,5.31.56,5,.44,4.65A7.76,7.76,0,0,1,.13,3.59,4.1,4.1,0,0,1,0,2.64,2.57,2.57,0,0,1,.8.82a2.67,2.67,0,0,1,2-.82,2.34,2.34,0,0,1,2.1.91A12,12,0,0,1,6.17,3.81Z"/><path class="cls-1" d="M33.69,26.07V3.52a3.76,3.76,0,0,1,.8-2.64A2.65,2.65,0,0,1,36.56,0a2.77,2.77,0,0,1,2.12.87,3.77,3.77,0,0,1,.81,2.65V26.07a3.81,3.81,0,0,1-.81,2.66,2.74,2.74,0,0,1-2.12.88,2.68,2.68,0,0,1-2.06-.89A3.8,3.8,0,0,1,33.69,26.07Z"/><path class="cls-1" d="M54.21,3.81,60.7,23,67.2,3.67c.34-1,.59-1.72.76-2.12A2.89,2.89,0,0,1,68.8.48,2.46,2.46,0,0,1,70.4,0a2.64,2.64,0,0,1,1.38.37,2.87,2.87,0,0,1,1,1,2.42,2.42,0,0,1,.36,1.24,4.09,4.09,0,0,1-.12.93c-.08.33-.18.65-.29,1s-.24.65-.35,1L65.44,24.2c-.25.72-.49,1.4-.74,2a8.71,8.71,0,0,1-.86,1.7,3.85,3.85,0,0,1-1.3,1.2,4.45,4.45,0,0,1-4,0,3.81,3.81,0,0,1-1.31-1.21,9.12,9.12,0,0,1-.87-1.71c-.25-.64-.5-1.31-.74-2L48.84,5.64c-.12-.33-.24-.67-.36-1a6.56,6.56,0,0,1-.31-1.06A4.1,4.1,0,0,1,48,2.64a2.57,2.57,0,0,1,.8-1.82,2.67,2.67,0,0,1,2-.82A2.34,2.34,0,0,1,53,.91,12,12,0,0,1,54.21,3.81Z"/><path class="cls-1" d="M81.73,26.07V3.52a3.76,3.76,0,0,1,.8-2.64A2.65,2.65,0,0,1,84.6,0a2.77,2.77,0,0,1,2.12.87,3.77,3.77,0,0,1,.81,2.65V26.07a3.81,3.81,0,0,1-.81,2.66,2.74,2.74,0,0,1-2.12.88,2.66,2.66,0,0,1-2.06-.89A3.8,3.8,0,0,1,81.73,26.07Z"/><path class="cls-1" d="M116.33,25.88,115,22.29H103.32L102,26a13,13,0,0,1-1.37,2.9,2.19,2.19,0,0,1-1.86.75,2.73,2.73,0,0,1-1.93-.8A2.46,2.46,0,0,1,96,27a4.08,4.08,0,0,1,.2-1.21c.13-.42.34-1,.64-1.74l7.32-18.59c.21-.53.46-1.18.76-1.92a9.86,9.86,0,0,1,.93-1.87,4,4,0,0,1,1.31-1.2,4,4,0,0,1,2-.46,4,4,0,0,1,2,.46,4,4,0,0,1,1.31,1.18,8,8,0,0,1,.83,1.55q.34.84.87,2.22l7.48,18.48a9.18,9.18,0,0,1,.88,3.06,2.51,2.51,0,0,1-.83,1.83,2.73,2.73,0,0,1-2,.83,2.63,2.63,0,0,1-1.17-.24,2.44,2.44,0,0,1-.82-.67,6,6,0,0,1-.71-1.29Q116.6,26.54,116.33,25.88Zm-11.48-7.95h8.55L109.09,6.11Z"/><path class="cls-1" d="M138.34,3.48l11.15,16.87v-17a3.7,3.7,0,0,1,.72-2.49A2.4,2.4,0,0,1,152.13,0a2.49,2.49,0,0,1,2,.83,3.7,3.7,0,0,1,.72,2.49V25.84q0,3.77-3.12,3.77a4.17,4.17,0,0,1-1.41-.23,3.6,3.6,0,0,1-1.17-.71,6.63,6.63,0,0,1-1-1.14c-.32-.44-.63-.88-.94-1.34L136.29,9.51V26.29a3.57,3.57,0,0,1-.76,2.48,2.53,2.53,0,0,1-2,.84,2.48,2.48,0,0,1-2-.85,3.68,3.68,0,0,1-.74-2.47V4.2A6.25,6.25,0,0,1,131.17,2,3.19,3.19,0,0,1,132.4.56,3.38,3.38,0,0,1,134.26,0a3.24,3.24,0,0,1,1.34.25,3.18,3.18,0,0,1,1,.69,6.81,6.81,0,0,1,.86,1.11C137.72,2.51,138,3,138.34,3.48Z"/><path class="cls-1" d="M184.86,3.52V24.36h11.75a3.08,3.08,0,0,1,2.16.68,2.24,2.24,0,0,1,.75,1.72,2.16,2.16,0,0,1-.74,1.71,3.21,3.21,0,0,1-2.17.65h-14a3.75,3.75,0,0,1-2.73-.84,3.76,3.76,0,0,1-.83-2.71v-22a3.81,3.81,0,0,1,.8-2.64A2.64,2.64,0,0,1,181.93,0,2.75,2.75,0,0,1,184,.87,3.77,3.77,0,0,1,184.86,3.52Z"/><path class="cls-1" d="M207.57,26.07V3.52a3.76,3.76,0,0,1,.8-2.64A2.65,2.65,0,0,1,210.44,0a2.77,2.77,0,0,1,2.12.87,3.77,3.77,0,0,1,.81,2.65V26.07a3.81,3.81,0,0,1-.81,2.66,2.74,2.74,0,0,1-2.12.88,2.66,2.66,0,0,1-2.06-.89A3.8,3.8,0,0,1,207.57,26.07Z"/></g></g></svg>