<svg xmlns="http://www.w3.org/2000/svg" width="313.183" height="340.621" viewBox="0 0 313.183 340.621">
  <g id="Group_7" data-name="Group 7" transform="translate(-315.16 -110.999)">
    <g id="Group_5" data-name="Group 5" transform="translate(315.16 110.999)">
      <path id="Path_1" data-name="Path 1" d="M628.188,260.8a60.289,60.289,0,0,0-12.639-32.394,61.375,61.375,0,0,0-15.239-71.91l-13.24-8.889a61.809,61.809,0,0,0-24.336-6.312c-8.686-15.865-26.372-24.955-45.613-24.955-10.483,0-19.947,4.374-27.378,11.191L477,118.973a77.1,77.1,0,0,0-39.96-7.769l-19.429,4.088a76.918,76.918,0,0,0-32.2,21.723c-.435.493-.854,1-1.275,1.5a68.31,68.31,0,0,0-20.9-2.894c-28.409,0-49.974,29.308-47.934,55.95a52.44,52.44,0,0,0,16.742,34.368,84.674,84.674,0,0,0,22.374,96.227l18.284,12.278a85.549,85.549,0,0,0,44.333,8.617q.922-.2,1.845-.389c10.221,7.289,21.8,9.663,34.582,9.663a43.7,43.7,0,0,0,26.64-9.365l14.63.856c10.043,7.726,21.5,10.206,34.218,10.206,18.307,0,33.631-12.728,41.095-28.824q1.46.04,2.941.04C605.7,325.249,630.541,291.487,628.188,260.8Z" transform="translate(-315.16 -110.999)" fill="#b2b8a3"/>
      <path id="Path_2" data-name="Path 2" d="M464.554,333.95c-53.863,0-98.808-44.947-98.808-98.808a98.615,98.615,0,0,1,30.9-71.215,100.581,100.581,0,0,1,54.455-38.99,96.462,96.462,0,0,1,9.31-11.91,77.666,77.666,0,0,0-23.372-1.822l-19.429,4.088a76.918,76.918,0,0,0-32.2,21.723c-.435.493-.854,1-1.275,1.5a68.31,68.31,0,0,0-20.9-2.894c-28.409,0-49.974,29.308-47.934,55.95a52.44,52.44,0,0,0,16.742,34.368,84.674,84.674,0,0,0,22.374,96.227l18.284,12.278a85.549,85.549,0,0,0,44.333,8.617q.922-.2,1.845-.389c10.221,7.289,21.8,9.663,34.582,9.663a43.7,43.7,0,0,0,26.64-9.365l11.878.695a99.793,99.793,0,0,1-18.419-10.157C470.583,333.786,467.585,333.95,464.554,333.95Z" transform="translate(-315.16 -110.998)" fill="#b2b8a3" style="mix-blend-mode: multiply;isolation: isolate"/>
      <path id="Path_3" data-name="Path 3" d="M439.116,240.105a96.638,96.638,0,0,1-27.891-5.4c8.426,5.572,17.791,7.8,28.012,8.194Q439.149,241.5,439.116,240.105Z" transform="translate(-228.92 0.059)" fill="#b2b8a3" style="mix-blend-mode: multiply;isolation: isolate"/>
    </g>
    <g id="Group_6" data-name="Group 6" transform="translate(461.845 261.848)">
      <line id="Line_1" data-name="Line 1" y1="189.771" transform="translate(26.83 0)" fill="#8cb347" stroke="#603e2a" stroke-miterlimit="10" stroke-width="24"/>
      <line id="Line_2" data-name="Line 2" y1="29.831" x2="29.83" transform="translate(29.831 35.576)" fill="#8cb347" stroke="#603e2a" stroke-miterlimit="10" stroke-width="10"/>
      <line id="Line_3" data-name="Line 3" x1="29.831" y1="29.831" transform="translate(0 77.326)" fill="#8cb347" stroke="#603e2a" stroke-miterlimit="10" stroke-width="10"/>
    </g>
  </g>
</svg>
